This is a stereoscopic 3D rip of Chicken Little, for new 3D TVs or computers with Nvidia 3D Vision. Tested with Stereoscopic Player. Enjoy!

Title: Chicken Little (2005)
Rated: G
Runtime: 81 Minutes
Genre: Animation | Adventure | Comedy

Description:
After Chicken Little causes widespread panic--when he mistakes a falling acorn for a piece of the sky--the young chicken is determined to restore his reputation. But just as things are starting to go his way, a real piece of the sky lands on his head. Chicken Little and his band of misfit friends, Abby Mallard (aka Ugly Duckling), Runt of the Litter and Fish Out of Water, attempt to save the world without sending the town into a whole new panic.
-From IMDB Page: http://www.imdb.com/title/tt0371606/

General
Unique ID : 252526898615586512484256200146899550064 (0xBDFAE95D5A4D2AEFAAEC88573669BF70)
Complete name : [filepath]Chicken Little 3D.mkv
Format : Matroska
File size : 4.92 GiB
Duration : 1h 17mn
Overall bit rate : 9 049 Kbps
Encoded date : UTC 2011-03-26 13:27:09
Writing application : mkvmerge v4.4.0 ('Die Wiederkehr') gebaut am Oct 31 2010 21:52:48
Writing library : libebml v1.0.0 + libmatroska v1.0.0

Video
ID : 1
Format : AVC
Format/Info : Advanced Video Codec
Format profile : Main@L4.0
Format settings, CABAC : Yes
Format settings, ReFrames : 3 frames
Muxing mode : Container profile=Unknown@0.0
Codec ID : V_MPEG4/ISO/AVC
Duration : 1h 17mn
Bit rate : 6 271 Kbps
Width : 1 920 pixels
Height : 1 080 pixels
Display aspect ratio : 16:9
Frame rate : 25.000 fps
Standard : Component
Color space : YUV
Chroma subsampling : 4:2:0
Bit depth : 8 bits
Scan type : Interlaced
Scan order : Top Field First
Bits/(Pixel*Frame) : 0.121
Stream size : 3.41 GiB (69%)
Title : Chicken.Little.3D.2005.ML.1080i.HDTV.half.SBS.z-man
Color primaries : BT.709-5, BT.1361, IEC 61966-2-4, SMPTE RP177
Transfer characteristics : BT.709-5, BT.1361
Matrix coefficients : BT.709-5, BT.1361, IEC 61966-2-4 709, SMPTE RP177

Audio #1
ID : 2
Format : AC-3
Format/Info : Audio Coding 3
Mode extension : CM (complete main)
Codec ID : A_AC3
Duration : 1h 17mn
Bit rate mode : Constant
Bit rate : 640 Kbps
Channel(s) : 6 channels
Channel positions : Front: L C R, Side: L R, LFE
Sampling rate : 48.0 KHz
Bit depth : 16 bits
Compression mode : Lossy
Delay relative to video : -120ms
Stream size : 356 MiB (7%)
Language : English

Audio #2
ID : 3
Format : DTS
Format/Info : Digital Theater Systems
Codec ID : A_DTS
Duration : 1h 17mn
Bit rate mode : Constant
Bit rate : 1 510 Kbps
Channel(s) : 6 channels
Channel positions : Front: L C R, Side: L R, LFE
Sampling rate : 48.0 KHz
Bit depth : 24 bits
Compression mode : Lossy
Delay relative to video : -120ms
Stream size : 840 MiB (17%)
Language : German

Audio #3
ID : 4
Format : AC-3
Format/Info : Audio Coding 3
Mode extension : CM (complete main)
Codec ID : A_AC3
Duration : 1h 17mn
Bit rate mode : Constant
Bit rate : 448 Kbps
Channel(s) : 2 channels
Channel positions : Front: L R
Sampling rate : 48.0 KHz
Bit depth : 16 bits
Compression mode : Lossy
Delay relative to video : -120ms
Stream size : 249 MiB (5%)
Language : Russian		